#N canvas 1159 324 598 626 12;
#X obj 180 7 *~;
#X obj 180 51 dac~;
#X obj 241 -35 hsl 100 15 0 1 0 0 empty empty empty -2 -8 0 10 -262144
-1 -1 9900 1;
#X text 352 -34 volume;
#X obj 249 -473 hsl 128 15 0 5 0 0 empty empty empty -2 -8 0 10 -262144
-1 -1 1270 1;
#X obj 269 -156 loadbang;
#X msg 269 -134 100;
#X obj 176 -96 vcf~ 100;
#X obj 246 -211 *~ 1000;
#X obj 246 -189 +~ 300;
#X obj 377 -445 loadbang;
#N canvas 0 22 307 317 triangleLFO 0;
#X obj 114 157 *~ -1;
#X obj 114 187 +~ 0.5;
#X obj 52 227 *~ 2;
#X obj 52 87 phasor~;
#X obj 52 45 inlet frequency;
#X obj 157 45 inlet phase;
#X obj 52 257 outlet~;
#X obj 114 127 max~ 0.5;
#X obj 52 127 min~ 0.5;
#X msg 157 67 0;
#X connect 0 0 1 0;
#X connect 1 0 2 0;
#X connect 2 0 6 0;
#X connect 3 0 7 0;
#X connect 3 0 8 0;
#X connect 4 0 3 0;
#X connect 5 0 9 0;
#X connect 7 0 0 0;
#X connect 8 0 2 0;
#X connect 9 0 3 1;
#X restore 246 -393 pd triangleLFO;
#N canvas 0 22 307 317 sineLFO 0;
#X obj 52 45 inlet frequency;
#X obj 157 45 inlet phase;
#X obj 52 197 outlet~;
#X obj 52 87 osc~;
#X msg 157 67 0.5;
#X obj 52 127 *~ 0.5;
#X obj 52 167 +~ 0.5;
#X connect 0 0 3 0;
#X connect 1 0 4 0;
#X connect 3 0 5 0;
#X connect 4 0 3 1;
#X connect 5 0 6 0;
#X connect 6 0 2 0;
#X restore 347 -393 pd sineLFO;
#X obj 459 -255 env~;
#X obj 459 -233 dbtorms;
#X obj 462 -210 hsl 100 15 0 1 0 0 empty empty empty -2 -8 0 10 -262144
-1 -1 4016 1;
#X obj 377 -423 t b b;
#X obj 246 -443 t f f;
#N canvas 0 22 311 322 xfade 0;
#X obj 76 57 inlet~;
#X obj 142 57 inlet~;
#X obj 77 198 outlet~;
#X obj 201 57 inlet;
#X obj 201 127 vline~;
#X obj 141 136 -~;
#X obj 141 156 *~;
#X obj 201 79 pack f 100;
#X connect 0 0 5 1;
#X connect 0 0 2 0;
#X connect 1 0 5 0;
#X connect 3 0 7 0;
#X connect 4 0 6 1;
#X connect 5 0 6 0;
#X connect 6 0 2 0;
#X connect 7 0 4 0;
#X restore 246 -307 pd xfade;
#X obj 349 -344 tgl 15 0 empty empty empty 17 7 0 10 -262144 -1 -1
0 1;
#X text 369 -349 0 = triangle;
#X text 369 -339 1 = sine;
#X text 297 -211 Frequency range;
#X text 291 -188 Offset;
#X text 298 -133 Q;
#X text 422 -392 Two different LFOs;
#X text 386 -473 LFO Frequency;
#X obj 246 -518 loadbang;
#X msg 246 -496 0.5;
#X obj 317 -97 loadbang;
#X obj 146 -198 bng 60 250 50 0 empty empty empty 17 7 0 10 -262144
-1 -1;
#X obj 53 -166 readsf~;
#X msg 73 -234 open guitar.wav \, 1;
#X msg 16 -215 0;
#X obj 238 -15 lop~ 20;
#X msg 267 -73 0.5;
#X connect 0 0 1 0;
#X connect 0 0 1 1;
#X connect 2 0 34 0;
#X connect 4 0 17 0;
#X connect 5 0 6 0;
#X connect 6 0 7 2;
#X connect 7 0 0 0;
#X connect 8 0 9 0;
#X connect 9 0 7 1;
#X connect 10 0 16 0;
#X connect 11 0 18 0;
#X connect 12 0 18 1;
#X connect 13 0 14 0;
#X connect 14 0 15 0;
#X connect 16 0 11 1;
#X connect 16 1 12 1;
#X connect 17 0 11 0;
#X connect 17 1 12 0;
#X connect 18 0 8 0;
#X connect 18 0 13 0;
#X connect 19 0 18 2;
#X connect 27 0 28 0;
#X connect 28 0 4 0;
#X connect 29 0 35 0;
#X connect 30 0 32 0;
#X connect 31 0 7 0;
#X connect 31 1 30 0;
#X connect 32 0 31 0;
#X connect 33 0 31 0;
#X connect 34 0 0 1;
#X connect 35 0 2 0;
